# xmcd
#
# Track frame offsets:
#	150
#	23801
#	39250
#	63291
#	86119
#	103511
#	123819
#	146037
#	168994
#	181852
#	199374
#	220905
#	235199
#	245409
#
# Disc length: 3610 seconds
#
# Revision: 1
# Processed by: cddbd v1.5.2PL0 Copyright (c) Steve Scherf et al.
# Submitted via: audiograbber 1.83.01
#
DISCID=bc0e180e
DTITLE=Steve Baker - Perfect Getaway
DYEAR=2017
DGENRE=Blues
TTITLE0=Anyway You Do
TTITLE1=Blind Man Blues
TTITLE2=Brand New Day
TTITLE3=Notional Security Blues
TTITLE4=Born In London
TTITLE5=(Don't Wanna Be An) Apeman
TTITLE6=Doublecrossed and Blue
TTITLE7=Hustle On Down
TTITLE8=Glad I Got You
TTITLE9=Nobody's Fool
TTITLE10=Soul Train
TTITLE11=Do Me
TTITLE12=Perfect Getaway
TTITLE13=One Word
EXTD=
EXTT0=
EXTT1=
EXTT2=
EXTT3=
EXTT4=
EXTT5=
EXTT6=
EXTT7=
EXTT8=
EXTT9=
EXTT10=
EXTT11=
EXTT12=
EXTT13=
PLAYORDER=
